<?xml version="1.0" encoding="UTF-8" standalone="no"?>
<!-- Created with Inkscape (http://www.inkscape.org/) -->

<svg
   xmlns:dc="http://purl.org/dc/elements/1.1/"
   xmlns:cc="http://creativecommons.org/ns#"
   xmlns:rdf="http://www.w3.org/1999/02/22-rdf-syntax-ns#"
   xmlns:svg="http://www.w3.org/2000/svg"
   xmlns="http://www.w3.org/2000/svg"
   xmlns:sodipodi="http://sodipodi.sourceforge.net/DTD/sodipodi-0.dtd"
   xmlns:inkscape="http://www.inkscape.org/namespaces/inkscape"
   width="97.34021mm"
   height="38.07354mm"
   viewBox="0 0 97.34021 38.07354"
   version="1.1"
   id="svg8"
   inkscape:version="0.92.1 r15371"
   sodipodi:docname="algar_telecom.svg">
  <defs
     id="defs2" />
  <sodipodi:namedview
     id="base"
     pagecolor="#ffffff"
     bordercolor="#666666"
     borderopacity="1.0"
     inkscape:pageopacity="0.0"
     inkscape:pageshadow="2"
     inkscape:zoom="0.35"
     inkscape:cx="212.52143"
     inkscape:cy="66.235713"
     inkscape:document-units="mm"
     inkscape:current-layer="layer1"
     showgrid="false"
     fit-margin-top="0"
     fit-margin-left="0"
     fit-margin-right="0"
     fit-margin-bottom="0"
     inkscape:window-width="1366"
     inkscape:window-height="705"
     inkscape:window-x="-8"
     inkscape:window-y="-8"
     inkscape:window-maximized="1" />
  <metadata
     id="metadata5">
    <rdf:RDF>
      <cc:Work
         rdf:about="">
        <dc:format>image/svg+xml</dc:format>
        <dc:type
           rdf:resource="http://purl.org/dc/dcmitype/StillImage" />
        <dc:title></dc:title>
      </cc:Work>
    </rdf:RDF>
  </metadata>
  <g
     inkscape:label="Camada 1"
     inkscape:groupmode="layer"
     id="layer1"
     transform="translate(-49.603706,-128.28466)">
    <g
       id="g22"
       transform="matrix(0.26458333,0,0,0.26458333,15.022665,41.369034)">
      <path
         id="path12"
         d="m 179.4,398.7 h -21.6 l 8.6,-30 c 1.9,-6.6 2.4,-11.1 2.4,-11.1 h 0.3 c 0,0 0.4,4.7 2.1,11.1 z m 11.3,32.2 v 0 c -1.7,0 -3.1,-1.1 -3.5,-2.6 0,0 0,-0.1 0,-0.1 l -4.9,-17 h -27.7 l -5.1,17 c -0.4,1.5 -1.9,2.7 -3.5,2.7 0,0 -0.1,0 -0.1,0 h -11.5 v 0 c -2,0 -3.7,-1.7 -3.7,-3.7 0,-0.4 0.1,-0.7 0.2,-1.1 0,0 0,-0.1 0,-0.1 l 27.6,-84.6 c 0.4,-1.6 1.9,-2.7 3.6,-2.7 h 15.8 c 1.6,0 3,1.1 3.5,2.5 l 27.5,84.7 c 0.1,0.4 0.2,0.8 0.2,1.2 0,2 -1.6,3.7 -3.6,3.7 v 0 h -14.8 z m 20.5,-92.3 c 0,-1.5 0.9,-2.7 2.1,-3.3 l 11.7,-6.1 c 0.6,-0.4 1.6,-0.7 2.4,-0.7 2,0 3.7,1.6 3.7,3.7 0,0.1 0,77.1 0,77.1 0.1,4.6 4.1,8.2 8.7,8.2 2,0 3.7,1.6 3.7,3.7 v 6 c 0,2 -1.6,3.7 -3.7,3.7 h -1.6 -2.5 c -13.6,0 -24.6,-11 -24.6,-24.6 v -67.5 -0.2 z m 91.2,24.7 c 1.3,0.6 2.2,1.9 2.2,3.4 v 0 63.4 c 0,20.1 -12.5,29.8 -30.9,30.5 -8.9,0.4 -16.4,-1.7 -22.6,-4.4 0,0 0,0 0,0 -1.4,-0.6 -2.3,-1.9 -2.3,-3.5 0,-0.5 0.1,-0.9 0.2,-1.3 l 2,-5.1 c 0.5,-1.5 1.9,-2.6 3.6,-2.6 0.5,0 1,0.1 1.4,0.3 0,0 0,0 0,0 4,1.5 8.9,2.6 14,2.6 10.8,0 14.7,-5.1 14.7,-13.2 v -3.9 c -2.4,1.3 -6.4,2.2 -12.3,2.2 -16.9,0 -29.1,-13 -29.1,-34.1 0,-23.6 12.1,-38.4 36.3,-38.4 9.3,0 17.4,1.7 22.8,4.1 -0.1,0 0,0 0,0 z m -17.8,55 c -1.7,1.1 -4.4,1.7 -7.1,1.7 -10.2,0 -14.4,-7.6 -14.4,-23.6 0,-16.9 4.3,-25.4 14.8,-25.4 2.8,0 5.1,0.4 6.7,1.2 z m 68.4,2.5 v -26.9 c -11.6,-0.9 -21.2,3.4 -21.2,14.5 0,8.2 4.9,13.1 13.4,13.1 5.5,0 7.8,-0.7 7.8,-0.7 z m 20,-23.9 v 21.7 5.7 c 0,1.5 -0.9,2.8 -2.3,3.4 0,0 -0.1,0 -0.1,0 -6.2,2.4 -15.5,4.1 -26.5,4.1 -21.3,0 -32.6,-7.7 -32.6,-22.3 0,-18.1 14.9,-26.4 41.4,-25.1 -0.6,-7 -4.7,-11.3 -14.6,-11.3 -5.1,0 -10,1.1 -14,2.6 0,0 0,0 0,0 -0.4,0.2 -0.9,0.3 -1.4,0.3 -1.7,0 -3.1,-1.1 -3.6,-2.6 l -2,-5.1 c -0.2,-0.4 -0.2,-0.8 -0.2,-1.3 0,-1.6 1,-2.9 2.3,-3.5 0,0 0,0 0,0 6.1,-2.7 13.6,-4.8 22.6,-4.4 18.4,0.7 30.9,10.4 30.9,30.5 v 7.3 z m 9.9,-28.7 c 0,-2.9 2,-5.2 4.6,-6.1 6.8,-2.3 15.7,-3.5 29.1,-3.1 h 0.1 c 2,0 3.7,1.6 3.7,3.7 v 0 5 c 0,2 -1.7,3.7 -3.7,3.7 -0.1,0 -0.3,0 -0.4,0 -4.9,-0.4 -10.9,0.6 -13.5,1.8 v 54 0.1 c -0.1,2 -1.7,3.6 -3.7,3.6 H 399 386.6 v 0 c -2,0 -3.7,-1.6 -3.7,-3.7 0,-0.1 0,-0.2 0,-0.2 z"
         class="st0"
         inkscape:connector-curvature="0"
         style="clip-rule:evenodd;fill:#0068a6;fill-rule:evenodd" />
      <path
         id="path14"
         d="m 435.2,362.8 c 0,-1.2 0.7,-2.4 1.8,-3.1 1.2,-0.7 2.7,-0.6 3.8,0.1 0,0 21.4,12.3 21.4,12.3 v 0 c 1.1,0.7 1.8,1.8 1.8,3.1 0,1.4 -0.8,2.6 -2,3.3 0,0 -21.3,12.3 -21.4,12.4 v 0 c -1.1,0.6 -2.5,0.6 -3.6,0 -1.2,-0.7 -1.9,-2 -1.8,-3.3 v -10.1 z"
         class="st1"
         inkscape:connector-curvature="0"
         style="fill:#00aeef" />
      <path
         id="path16"
         d="m 469.5,382.5 c 0,-1.2 0.7,-2.4 1.8,-3.1 1.2,-0.7 2.7,-0.6 3.8,0.1 0,0 21.4,12.3 21.4,12.3 v 0 c 1.1,0.6 1.8,1.8 1.8,3.1 0,1.4 -0.8,2.6 -2,3.3 0,0 -21.3,12.3 -21.4,12.3 v 0 c -1.1,0.6 -2.5,0.6 -3.6,-0.1 -1.2,-0.7 -1.9,-2 -1.8,-3.3 z"
         class="st2"
         inkscape:connector-curvature="0"
         style="fill:#ffcb05" />
      <path
         id="path18"
         d="m 435.2,402.3 c 0,-1.2 0.7,-2.4 1.8,-3.1 1.2,-0.7 2.7,-0.6 3.8,0.1 0,0 21.4,12.3 21.4,12.3 v 0 c 1.1,0.6 1.8,1.8 1.8,3.1 0,1.4 -0.8,2.7 -2,3.3 0,0 -21.3,12.3 -21.4,12.3 v 0 c -1.1,0.6 -2.5,0.6 -3.6,-0.1 -1.2,-0.7 -1.9,-2 -1.8,-3.3 v -10.1 z"
         class="st3"
         inkscape:connector-curvature="0"
         style="fill:#00a651" />
      <path
         id="path20"
         d="M 372.2,447.6 V 443 h -17.1 v 4.6 h 5.1 V 472 h 6.9 v -24.4 z m 13.5,10.9 -8,1.2 c -0.2,-4.7 1.5,-7 4.2,-7 2.5,0 3.8,1.8 3.8,5.8 z m 6.2,2.4 c 0.3,-7.7 -3.1,-12.1 -9.7,-12.1 -6.6,0 -10.3,4.6 -10.3,11.7 0,7.2 4,11.8 11.1,11.8 3.9,0 6.4,-0.8 8.2,-1.6 l -1.5,-4.1 c -1.2,0.6 -3.3,1.2 -6,1.2 -3.4,0 -5.1,-1.6 -5.5,-5 z m 9.8,-22 H 395 v 33 h 6.6 v -33 z m 17,19.6 -8,1.2 c -0.2,-4.7 1.5,-7 4.2,-7 2.5,0 3.8,1.8 3.8,5.8 z m 6.2,2.4 c 0.3,-7.7 -3.1,-12.1 -9.7,-12.1 -6.6,0 -10.3,4.6 -10.3,11.7 0,7.2 4,11.8 11.1,11.8 3.9,0 6.4,-0.8 8.2,-1.6 l -1.5,-4.1 c -1.2,0.6 -3.3,1.2 -6,1.2 -3.4,0 -5.1,-1.6 -5.5,-5 z m 17.3,9.8 -1.4,-4 c -0.7,0.6 -1.5,0.9 -2.8,0.9 -2.6,0 -4.2,-2.7 -4.2,-7.2 0,-4.6 1.4,-7.2 4.3,-7.2 1.3,0 2.1,0.4 2.7,0.9 l 1.4,-3.6 c -1,-0.8 -2.8,-1.6 -5.6,-1.6 -5.1,0 -9.4,4 -9.4,11.7 0,7.6 4,11.8 9.4,11.8 2.8,-0.1 4.6,-0.8 5.6,-1.7 z m 14.4,-10.2 c 0,4.1 -0.6,7.4 -3.5,7.4 -2.9,0 -3.5,-3.3 -3.5,-7.4 0,-4 0.6,-7.6 3.5,-7.6 2.9,0 3.5,3.5 3.5,7.6 z m 6.6,0.1 c 0,-6.8 -3.5,-11.7 -10.2,-11.7 -6.6,0 -10.1,5 -10.1,11.7 0,6.7 3.5,11.8 10.1,11.8 6.7,0 10.2,-5.1 10.2,-11.8 z m 35.4,11.3 V 456 c 0,-4 -2.8,-7.2 -8.2,-7.2 -3.8,0 -6.1,1 -7.6,2.3 -1.3,-1.3 -3.5,-2.3 -7.3,-2.3 -4,0 -6.7,0.5 -9.3,1.7 v 21.4 h 6.6 v -18.6 c 0.8,-0.3 1.5,-0.4 2.7,-0.4 2.3,0 3.6,1.2 3.6,3 v 16 h 6.6 V 454 c 0.8,-0.8 1.7,-1.1 2.9,-1.1 2.3,0 3.3,1.3 3.3,3.1 v 15.9 z"
         class="st4"
         inkscape:connector-curvature="0"
         style="fill:#808285" />
    </g>
  </g>
  <style
     id="style10"
     type="text/css">
	.st0{fill-rule:evenodd;clip-rule:evenodd;fill:#0068A6;}
	.st1{fill:#00AEEF;}
	.st2{fill:#FFCB05;}
	.st3{fill:#00A651;}
	.st4{fill:#808285;}
</style>
</svg>
